<?xml version="1.0" encoding="UTF-8" standalone="no"?>
<!-- Created with Inkscape (http://www.inkscape.org/) -->

<svg
   width="210mm"
   height="297mm"
   viewBox="0 0 210 297"
   version="1.1"
   id="svg1"
   inkscape:version="1.3.2 (091e20e, 2023-11-25, custom)"
   sodipodi:docname="Bottom_plate_with_mounting_holes.svg"
   xmlns:inkscape="http://www.inkscape.org/namespaces/inkscape"
   xmlns:sodipodi="http://sodipodi.sourceforge.net/DTD/sodipodi-0.dtd"
   xmlns="http://www.w3.org/2000/svg"
   xmlns:svg="http://www.w3.org/2000/svg">
  <sodipodi:namedview
     id="namedview1"
     pagecolor="#ffffff"
     bordercolor="#666666"
     borderopacity="1.0"
     inkscape:showpageshadow="2"
     inkscape:pageopacity="0.0"
     inkscape:pagecheckerboard="0"
     inkscape:deskcolor="#d1d1d1"
     inkscape:document-units="mm"
     inkscape:zoom="1.0547699"
     inkscape:cx="353.63162"
     inkscape:cy="255.98"
     inkscape:window-width="1440"
     inkscape:window-height="830"
     inkscape:window-x="-6"
     inkscape:window-y="-6"
     inkscape:window-maximized="1"
     inkscape:current-layer="layer1" />
  <defs
     id="defs1" />
  <g
     inkscape:label="Lager 1"
     inkscape:groupmode="layer"
     id="layer1">
    <g
       id="panel1772"
       style="vector-effect:non-scaling-stroke;fill:none;stroke:#000000;stroke-width:0.264583;stroke-dasharray:none;stroke-opacity:1;-inkscape-stroke:hairline"
       transform="rotate(-90,71.068583,108.65)">
      <path
         style="vector-effect:non-scaling-stroke;fill:none;stroke:#000000;stroke-width:0.264583;stroke-dasharray:none;stroke-opacity:1;-inkscape-stroke:hairline"
         d="m 43.1,43.1 h 6.5136 v 3 h 5.9 v -3 h 6.5637 v 3 h 5.9 v -3 h 6.5636 v 3 h 5.9 v -3 h 6.5636 v 3 h 5.9 v -3 h 6.5637 v 3 h 5.8998 v -3 h 6.564 v 3 h 5.9 v -3 h 6.563 v 3 h 5.9 v -3 h 6.564 v 3 h 5.9 v -3 h 6.564 v 3 h 5.9 v -3 h 6.563 v 3 h 5.9 v -3 h 6.514"
         id="path92" />
      <path
         style="vector-effect:non-scaling-stroke;fill:none;stroke:#000000;stroke-width:0.264583;stroke-dasharray:none;stroke-opacity:1;-inkscape-stroke:hairline"
         d="m 174.2,43.1 v 6.76 h -3 v 5.9 h 3 v 6.81 h -3 v 5.9 h 3 v 6.81 h -3 v 5.9 h 3 v 6.81 h -3 v 5.9 h 3 v 6.81 h -3 v 5.9 h 3 v 6.81 h -3 v 5.9 h 3 v 6.81 h -3 v 5.9 h 3 v 6.81 h -3 v 5.9 h 3 v 6.81 h -3 v 5.9 h 3 v 6.76"
         id="path93" />
      <path
         style="vector-effect:non-scaling-stroke;fill:none;stroke:#000000;stroke-width:0.264583;stroke-dasharray:none;stroke-opacity:1;-inkscape-stroke:hairline"
         d="m 174.2,164.2 h -6.514 v -3 h -5.9 v 3 h -6.563 v -3 h -5.9 v 3 h -6.564 v -3 h -5.9 v 3 h -6.564 v -3 h -5.9 v 3 h -6.563 v -3 h -5.9 v 3 h -6.564 v -3 h -5.8998 v 3 h -6.5637 v -3 h -5.9 v 3 h -6.5636 v -3 h -5.9 v 3 h -6.5636 v -3 h -5.9 v 3 h -6.5637 v -3 h -5.9 v 3 H 43.1"
         id="path94" />
      <path
         style="vector-effect:non-scaling-stroke;fill:none;stroke:#000000;stroke-width:0.264583;stroke-dasharray:none;stroke-opacity:1;-inkscape-stroke:hairline"
         d="m 43.1,164.2 v -6.76 h 3 v -5.9 h -3 v -6.81 h 3 v -5.9 h -3 v -6.81 h 3 v -5.9 h -3 v -6.81 h 3 v -5.9 h -3 v -6.81 h 3 v -5.9 h -3 v -6.81 h 3 v -5.9 h -3 v -6.81 h 3 v -5.9 h -3 v -6.81 h 3 v -5.9 h -3 v -6.81 h 3 v -5.9 h -3 V 43.1"
         id="path95" />
    </g>
    <circle
       style="vector-effect:non-scaling-stroke;fill:none;stroke:#000000;stroke-width:0.048922;-inkscape-stroke:hairline"
       id="path1"
       cx="21.44301"
       cy="16.1"
       r="1.6" />
    <circle
       style="vector-effect:non-scaling-stroke;fill:none;stroke:#000000;stroke-width:0.0503825;-inkscape-stroke:hairline"
       id="path2"
       cx="110.72902"
       cy="16.1"
       r="1.6" />
    <ellipse
       style="vector-effect:non-scaling-stroke;fill:none;stroke:#000000;stroke-width:0.0310323;-inkscape-stroke:hairline"
       id="path3"
       cx="110.72902"
       cy="126.29999"
       rx="1.6430099"
       ry="1.5762861" />
    <ellipse
       style="vector-effect:non-scaling-stroke;fill:none;stroke:#000000;stroke-width:0.0530711;-inkscape-stroke:hairline"
       id="path4"
       cx="21.44301"
       cy="126.29999"
       rx="1.6430099"
       ry="1.5762861" />
  </g>
</svg>
