<?xml version="1.0" encoding="UTF-8" standalone="no"?>
<!-- Created with Inkscape (http://www.inkscape.org/) -->

<svg
   width="210mm"
   height="297mm"
   viewBox="0 0 210 297"
   version="1.1"
   id="svg1"
   inkscape:version="1.3.2 (091e20e, 2023-11-25, custom)"
   sodipodi:docname="BoxForPCB.svg"
   xmlns:inkscape="http://www.inkscape.org/namespaces/inkscape"
   xmlns:sodipodi="http://sodipodi.sourceforge.net/DTD/sodipodi-0.dtd"
   xmlns="http://www.w3.org/2000/svg"
   xmlns:svg="http://www.w3.org/2000/svg">
  <sodipodi:namedview
     id="namedview1"
     pagecolor="#ffffff"
     bordercolor="#666666"
     borderopacity="1.0"
     inkscape:showpageshadow="2"
     inkscape:pageopacity="0.0"
     inkscape:pagecheckerboard="0"
     inkscape:deskcolor="#d1d1d1"
     inkscape:document-units="mm"
     inkscape:zoom="0.52738496"
     inkscape:cx="397.24303"
     inkscape:cy="547.98681"
     inkscape:window-width="1440"
     inkscape:window-height="830"
     inkscape:window-x="-6"
     inkscape:window-y="-6"
     inkscape:window-maximized="1"
     inkscape:current-layer="layer1" />
  <defs
     id="defs1" />
  <g
     inkscape:label="Lager 1"
     inkscape:groupmode="layer"
     id="layer1">
    <g
       id="panel7263"
       style="vector-effect:non-scaling-stroke;fill:none;stroke:#000000;stroke-width:0.264583;stroke-dasharray:none;stroke-opacity:1;-inkscape-stroke:hairline"
       transform="translate(-32.609797,16.054054)">
      <path
         style="vector-effect:non-scaling-stroke;fill:none;stroke:#000000;stroke-width:0.264583;stroke-dasharray:none;stroke-opacity:1;-inkscape-stroke:hairline"
         d="m 43.1,168.2 h 6.4136 v -3 h 6.1 v 3 h 6.3637 v -3 h 6.1 v 3 h 6.3636 v -3 h 6.1 v 3 h 6.3636 v -3 h 6.1 v 3 h 6.3637 v -3 h 6.0998 v 3 h 6.364 v -3 h 6.1 v 3 h 6.363 v -3 h 6.1 v 3 h 6.364 v -3 h 6.1 v 3 h 6.364 v -3 h 6.1 v 3 h 6.363 v -3 h 6.1 v 3 h 6.414"
         id="path52" />
      <path
         style="vector-effect:non-scaling-stroke;fill:none;stroke:#000000;stroke-width:0.264583;stroke-dasharray:none;stroke-opacity:1;-inkscape-stroke:hairline"
         d="m 174.2,168.2 v 6.75 h -3 v 5.9 h 3 v 9.8 h -3 v 5.9 h 3 v 6.75"
         id="path53" />
      <path
         style="vector-effect:non-scaling-stroke;fill:none;stroke:#000000;stroke-width:0.264583;stroke-dasharray:none;stroke-opacity:1;-inkscape-stroke:hairline"
         d="m 174.2,203.3 h -6.414 v 3 h -6.1 v -3 h -6.363 v 3 h -6.1 v -3 h -6.364 v 3 h -6.1 v -3 h -6.364 v 3 h -6.1 v -3 h -6.363 v 3 h -6.1 v -3 h -6.364 v 3 h -6.0998 v -3 h -6.3637 v 3 h -6.1 v -3 h -6.3636 v 3 h -6.1 v -3 h -6.3636 v 3 h -6.1 v -3 h -6.3637 v 3 h -6.1 v -3 H 43.1"
         id="path54" />
      <path
         style="vector-effect:non-scaling-stroke;fill:none;stroke:#000000;stroke-width:0.264583;stroke-dasharray:none;stroke-opacity:1;-inkscape-stroke:hairline"
         d="m 43.1,203.3 v -6.75 h 3 v -5.9 h -3 v -9.8 h 3 v -5.9 h -3 v -6.75"
         id="path55" />
    </g>
    <g
       id="panel1134"
       style="vector-effect:non-scaling-stroke;fill:none;stroke:#000000;stroke-width:0.264583;stroke-dasharray:none;stroke-opacity:1;-inkscape-stroke:hairline"
       transform="translate(10.033784,-23.077703)">
      <path
         style="vector-effect:non-scaling-stroke;fill:none;stroke:#000000;stroke-width:0.264583;stroke-dasharray:none;stroke-opacity:1;-inkscape-stroke:hairline"
         d="m 4,46.1 h 6.65 v -3 h 6.1 v 3 h 9.6 v -3 h 6.1 v 3 h 6.65"
         id="path70" />
      <path
         style="vector-effect:non-scaling-stroke;fill:none;stroke:#000000;stroke-width:0.264583;stroke-dasharray:none;stroke-opacity:1;-inkscape-stroke:hairline"
         d="m 39.1,46.1 v 3.66 h 3 v 6.1 h -3 v 6.61 h 3 v 6.1 h -3 v 6.61 h 3 v 6.1 h -3 v 6.61 h 3 v 6.1 h -3 v 6.61 h 3 v 6.1 h -3 v 6.61 h 3 v 6.1 h -3 v 6.61 h 3 v 6.1 h -3 v 6.61 h 3 v 6.1 h -3 v 6.61 h 3 v 6.1 h -3 v 3.66"
         id="path71" />
      <path
         style="vector-effect:non-scaling-stroke;fill:none;stroke:#000000;stroke-width:0.264583;stroke-dasharray:none;stroke-opacity:1;-inkscape-stroke:hairline"
         d="m 39.1,161.2 h -6.65 v 3 h -6.1 v -3 h -9.6 v 3 h -6.1 v -3 H 4"
         id="path72" />
      <path
         style="vector-effect:non-scaling-stroke;fill:none;stroke:#000000;stroke-width:0.264583;stroke-dasharray:none;stroke-opacity:1;-inkscape-stroke:hairline"
         d="m 4,161.2 v -3.66 H 1 v -6.1 h 3 v -6.61 H 1 v -6.1 h 3 v -6.61 H 1 v -6.1 h 3 v -6.61 H 1 v -6.1 H 4 V 106.7 H 1 v -6.1 H 4 V 93.99 H 1 v -6.1 H 4 V 81.28 H 1 v -6.1 H 4 V 68.57 H 1 v -6.1 H 4 V 55.86 H 1 v -6.1 H 4 V 46.1"
         id="path73" />
    </g>
    <g
       id="panel1772"
       style="vector-effect:non-scaling-stroke;fill:none;stroke:#000000;stroke-width:0.264583;stroke-dasharray:none;stroke-opacity:1;-inkscape-stroke:hairline"
       transform="translate(27.592905,2.5084459)">
      <path
         style="vector-effect:non-scaling-stroke;fill:none;stroke:#000000;stroke-width:0.264583;stroke-dasharray:none;stroke-opacity:1;-inkscape-stroke:hairline"
         d="m 43.1,43.1 h 6.5136 v 3 h 5.9 v -3 h 6.5637 v 3 h 5.9 v -3 h 6.5636 v 3 h 5.9 v -3 h 6.5636 v 3 h 5.9 v -3 h 6.5637 v 3 h 5.8998 v -3 h 6.564 v 3 h 5.9 v -3 h 6.563 v 3 h 5.9 v -3 h 6.564 v 3 h 5.9 v -3 h 6.564 v 3 h 5.9 v -3 h 6.563 v 3 h 5.9 v -3 h 6.514"
         id="path92" />
      <path
         style="vector-effect:non-scaling-stroke;fill:none;stroke:#000000;stroke-width:0.264583;stroke-dasharray:none;stroke-opacity:1;-inkscape-stroke:hairline"
         d="m 174.2,43.1 v 6.76 h -3 v 5.9 h 3 v 6.81 h -3 v 5.9 h 3 v 6.81 h -3 v 5.9 h 3 v 6.81 h -3 v 5.9 h 3 v 6.81 h -3 v 5.9 h 3 v 6.81 h -3 v 5.9 h 3 v 6.81 h -3 v 5.9 h 3 v 6.81 h -3 v 5.9 h 3 v 6.81 h -3 v 5.9 h 3 v 6.76"
         id="path93" />
      <path
         style="vector-effect:non-scaling-stroke;fill:none;stroke:#000000;stroke-width:0.264583;stroke-dasharray:none;stroke-opacity:1;-inkscape-stroke:hairline"
         d="m 174.2,164.2 h -6.514 v -3 h -5.9 v 3 h -6.563 v -3 h -5.9 v 3 h -6.564 v -3 h -5.9 v 3 h -6.564 v -3 h -5.9 v 3 h -6.563 v -3 h -5.9 v 3 h -6.564 v -3 h -5.8998 v 3 h -6.5637 v -3 h -5.9 v 3 h -6.5636 v -3 h -5.9 v 3 h -6.5636 v -3 h -5.9 v 3 h -6.5637 v -3 h -5.9 v 3 H 43.1"
         id="path94" />
      <path
         style="vector-effect:non-scaling-stroke;fill:none;stroke:#000000;stroke-width:0.264583;stroke-dasharray:none;stroke-opacity:1;-inkscape-stroke:hairline"
         d="m 43.1,164.2 v -6.76 h 3 v -5.9 h -3 v -6.81 h 3 v -5.9 h -3 v -6.81 h 3 v -5.9 h -3 v -6.81 h 3 v -5.9 h -3 v -6.81 h 3 v -5.9 h -3 v -6.81 h 3 v -5.9 h -3 v -6.81 h 3 v -5.9 h -3 v -6.81 h 3 v -5.9 h -3 v -6.81 h 3 v -5.9 h -3 V 43.1"
         id="path95" />
    </g>
    <g
       id="panel1267"
       style="vector-effect:non-scaling-stroke;fill:none;stroke:#000000;stroke-width:0.264583;stroke-dasharray:none;stroke-opacity:1;-inkscape-stroke:hairline"
       transform="matrix(0,-1,-1,0,176.98784,452.9169)">
      <path
         style="vector-effect:non-scaling-stroke;fill:none;stroke:#000000;stroke-width:0.264583;stroke-dasharray:none;stroke-opacity:1;-inkscape-stroke:hairline"
         d="m 178.2,46.1 h 6.65 v -3 h 6.1 v 3 h 9.6 v -3 h 6.1 v 3 h 6.65"
         id="path96" />
      <path
         style="vector-effect:non-scaling-stroke;fill:none;stroke:#000000;stroke-width:0.264583;stroke-dasharray:none;stroke-opacity:1;-inkscape-stroke:hairline"
         d="m 213.3,46.1 v 3.66 h 3 v 6.1 h -3 v 6.61 h 3 v 6.1 h -3 v 6.61 h 3 v 6.1 h -3 v 6.61 h 3 v 6.1 h -3 v 6.61 h 3 v 6.1 h -3 v 6.61 h 3 v 6.1 h -3 v 6.61 h 3 v 6.1 h -3 v 6.61 h 3 v 6.1 h -3 v 6.61 h 3 v 6.1 h -3 v 3.66"
         id="path97" />
      <path
         style="vector-effect:non-scaling-stroke;fill:none;stroke:#000000;stroke-width:0.264583;stroke-dasharray:none;stroke-opacity:1;-inkscape-stroke:hairline"
         d="m 213.3,161.2 h -6.65 v 3 h -6.1 v -3 h -9.6 v 3 h -6.1 v -3 h -6.65"
         id="path98" />
      <path
         style="vector-effect:non-scaling-stroke;fill:none;stroke:#000000;stroke-width:0.264583;stroke-dasharray:none;stroke-opacity:1;-inkscape-stroke:hairline"
         d="m 178.2,161.2 v -3.66 h -3 v -6.1 h 3 v -6.61 h -3 v -6.1 h 3 v -6.61 h -3 v -6.1 h 3 v -6.61 h -3 v -6.1 h 3 v -6.61 h -3 v -6.1 h 3 v -6.61 h -3 v -6.1 h 3 v -6.61 h -3 v -6.1 h 3 v -6.61 h -3 v -6.1 h 3 v -6.61 h -3 v -6.1 h 3 V 46.1"
         id="path99" />
    </g>
    <g
       id="panel7765"
       style="vector-effect:non-scaling-stroke;fill:none;stroke:#000000;stroke-width:0.264583;stroke-dasharray:none;stroke-opacity:1;-inkscape-stroke:hairline"
       transform="translate(29.599662,0.50168919)">
      <path
         style="vector-effect:non-scaling-stroke;fill:none;stroke:#000000;stroke-width:0.264583;stroke-dasharray:none;stroke-opacity:1;-inkscape-stroke:hairline"
         d="m 43.1,4 h 6.4136 V 1 h 6.1 v 3 h 6.3637 V 1 h 6.1 v 3 h 6.3636 V 1 h 6.1 v 3 h 6.3636 V 1 h 6.1 v 3 h 6.3637 V 1 h 6.0998 v 3 h 6.364 V 1 h 6.1 v 3 h 6.363 V 1 h 6.1 v 3 h 6.364 V 1 h 6.1 v 3 h 6.364 V 1 h 6.1 v 3 h 6.363 V 1 h 6.1 v 3 h 6.414"
         id="path104" />
      <path
         style="vector-effect:non-scaling-stroke;fill:none;stroke:#000000;stroke-width:0.264583;stroke-dasharray:none;stroke-opacity:1;-inkscape-stroke:hairline"
         d="m 174.2,4 v 6.75 h -3 v 5.9 h 3 v 9.8 h -3 v 5.9 h 3 v 6.75"
         id="path105" />
      <path
         style="vector-effect:non-scaling-stroke;fill:none;stroke:#000000;stroke-width:0.264583;stroke-dasharray:none;stroke-opacity:1;-inkscape-stroke:hairline"
         d="m 174.2,39.1 h -6.414 v 3 h -6.1 v -3 h -6.363 v 3 h -6.1 v -3 h -6.364 v 3 h -6.1 v -3 h -6.364 v 3 h -6.1 v -3 h -6.363 v 3 h -6.1 v -3 h -6.364 v 3 h -6.0998 v -3 h -6.3637 v 3 h -6.1 v -3 h -6.3636 v 3 h -6.1 v -3 h -6.3636 v 3 h -6.1 v -3 h -6.3637 v 3 h -6.1 v -3 H 43.1"
         id="path106" />
      <path
         style="vector-effect:non-scaling-stroke;fill:none;stroke:#000000;stroke-width:0.264583;stroke-dasharray:none;stroke-opacity:1;-inkscape-stroke:hairline"
         d="m 43.1,39.1 v -6.75 h 3 v -5.9 h -3 v -9.8 h 3 v -5.9 h -3 V 4"
         id="path107" />
    </g>
  </g>
</svg>
